<?xml version="1.0" encoding="utf-8"?>
<!-- Generator: Adobe Illustrator 18.1.1, SVG Export Plug-In . SVG Version: 6.00 Build 0)  -->
<svg version="1.1" id="Layer_1" xmlns="http://www.w3.org/2000/svg" xmlns:xlink="http://www.w3.org/1999/xlink" x="0px" y="0px"
	 viewBox="0 0 557.6 154.6" enable-background="new 0 0 557.6 154.6" xml:space="preserve">
<path fill="#008E9D" d="M141.9,63.1c0.3,0,0.6-0.2,0.7-0.4L152.8,35c0.1-0.2,0.5-0.8-0.2-1.1c-2.6-1.1-8.9-3.7-8.7-3.6l22.7,2.6
	c0.3,0,0.5,0.3,0.4,0.5L155,66c-0.1,0.3,0,0.6,0.2,0.8l2.6,2.5c0.2,0.2,0.4,0.2,0.5-0.1l15.3-42.1c0.1-0.2-0.1-0.5-0.4-0.5L142.7,23
	c-0.3,0-0.6,0.1-0.7,0.4l-14.6,40.1c-0.1,0.3,0.2,0.4,0.2,0.4L141.9,63.1z"/>
<path fill="#F29300" d="M119.4,40.1c0.3,0,0.6-0.2,0.7-0.4L130.4,12c0.1-0.2,0.4-0.8-0.2-1.1c-2.6-1.1-8.9-3.7-8.7-3.7l22.7,2.6
	c0.3,0,0.5,0.3,0.4,0.5l-12,32.6c-0.1,0.2,0,0.6,0.2,0.8l2.6,2.5c0.2,0.2,0.4,0.2,0.5-0.1l15.3-42.1c0.1-0.2-0.1-0.5-0.4-0.5
	L120.2,0c-0.3,0-0.6,0.1-0.7,0.4l-14.6,40.2c-0.1,0.3,0.2,0.4,0.2,0.4L119.4,40.1z"/>
<path fill="#70B52C" d="M169.9,77c0.2,0,0.4-0.1,0.4-0.3l6.3-17c0-0.1,0.3-0.5-0.1-0.7c-1.6-0.7-5.5-2.3-5.3-2.2l13.9,1.6
	c0.2,0,0.3,0.2,0.2,0.3l-7.4,20c-0.1,0.1,0,0.4,0.1,0.5l1.6,1.5c0.1,0.1,0.3,0.1,0.3-0.1l9.4-25.8c0-0.2-0.1-0.3-0.2-0.3l-18.8-2.2
	c-0.2,0-0.4,0.1-0.4,0.2l-9,24.7c-0.1,0.2,0.1,0.3,0.1,0.3L169.9,77z"/>
<path fill="#FFCB00" d="M92.8,91.4c0.4,0,0.7-0.2,0.9-0.5l12-32.6c0.1-0.2,0.5-0.9-0.2-1.3c-3.1-1.3-10.5-4.3-10.2-4.3l26.7,3.1
	c0.4,0,0.6,0.3,0.4,0.6l-14.1,38.4c-0.1,0.3,0,0.7,0.2,0.9l3,2.9c0.2,0.2,0.5,0.2,0.6-0.1l18-49.5c0.1-0.3-0.1-0.6-0.4-0.6l-36-4.2
	c-0.4,0-0.7,0.2-0.8,0.5L75.7,91.9c-0.1,0.4,0.2,0.5,0.3,0.5L92.8,91.4z"/>
<path fill="#4F338A" d="M20.2,101c0.4,0,0.9-0.3,1-0.6l14.1-38.3c0.1-0.3,0.6-1.1-0.3-1.5c-3.6-1.5-12.4-5.1-12-5.1l31.4,3.6
	c0.4,0,0.6,0.4,0.5,0.7L38.4,105c-0.1,0.4,0,0.9,0.3,1.1l3.6,3.5c0.3,0.3,0.6,0.2,0.7-0.1l21.2-58.2c0.1-0.4-0.1-0.7-0.5-0.7
	l-42.4-5c-0.4,0-0.9,0.2-1,0.5L0,101.6c-0.2,0.5,0.2,0.6,0.3,0.6L20.2,101z"/>
<path fill="#D70F16" d="M64.5,60.5c0.4,0,0.9-0.3,1-0.6l14.1-38.3c0.1-0.3,0.6-1.1-0.3-1.5c-3.6-1.5-12.3-5.1-12-5.1l31.4,3.6
	c0.4,0,0.7,0.4,0.5,0.7L82.7,64.5c-0.1,0.3,0,0.9,0.3,1.1l3.6,3.5c0.3,0.3,0.6,0.2,0.7-0.1l21.2-58.2c0.1-0.3-0.1-0.7-0.5-0.7
	L65.6,5c-0.4,0-0.9,0.2-1,0.5L44.4,61.1c-0.2,0.5,0.2,0.6,0.3,0.6L64.5,60.5z"/>
<polygon fill="#4F338A" points="106.1,121.2 127.8,121.2 116.2,154.1 103,154.1 112.2,127.9 112.1,127.9 90.6,154.1 78.7,154.1 
	75.8,127.9 75.6,127.9 66.4,154.1 53.1,154.1 64.8,121.2 86.4,121.2 87.9,144.8 88,144.8 "/>
<path fill="#4F338A" d="M140.2,154.1l11.6-33h19c21.4,0,25.5,3.7,23.6,9.1c-1.1,3.1-4.8,5.3-10.7,6.8c5.5,1.4,8.1,4.3,6.9,7.6
	c-2,5.7-12.6,9.5-24.6,9.5H140.2z M160.3,134.6c9.7,0,18.8,0.6,20.4-4c1.7-4.7-8.2-4.2-17.5-4.2L160.3,134.6z M163.8,148.9
	c4,0,11.6,0.2,13.4-4.8c1.6-4.5-5.7-5.1-18.6-4.6l-3.3,9.4H163.8z"/>
<path fill="#4F338A" d="M266.5,137.7c-2.9,8.3-14.4,17-33.2,17c-18.8,0-24.1-8.7-21.2-17c2.9-8.3,14.4-17,33.2-17
	C264.1,120.7,269.4,129.4,266.5,137.7 M225.6,137.7c-1.5,4.2-1.9,11.8,9.5,11.8c11.3,0,16.3-7.5,17.8-11.8
	c1.5-4.2,1.9-11.8-9.5-11.8S227.1,133.4,225.6,137.7"/>
<path fill="#9C9B9B" d="M359,121.2c14.9,0,18.9,5.3,17.4,9.5c-1.3,3.5-6.8,6.8-13.9,8.2l7.7,14.8h-13.7l-6.9-13.4h-9.9l-4.7,13.4
	h-13l11.4-32.4H359z M347.3,134.6c5.7,0,14.3,0.2,15.7-3.9c1.6-4.5-7.3-4.1-13.7-4.1h-4.8l-2.8,8H347.3z"/>
<path fill="#9C9B9B" d="M415.6,151.5c-5.2,1.6-8.3,2.6-14.2,2.6c-8.1,0-13.7-2.8-12.2-6.9c2.3-6.6,20.1-7.9,30.2-8.4
	c2-3.3,0.2-4.4-4.4-4.4c-3.9,0-7.1,0.9-8.5,2.9l-11.5-0.9c4.5-4.9,11.7-6.5,21.5-6.5c12.6,0,17.3,3,15.7,7.4l-4.1,11.6
	c-0.6,1.7-1,3.3-0.1,4.9h-12L415.6,151.5z M418,142.9c-5.2,0.4-15.4,0.7-16.6,4.1c-0.5,1.4,0.5,2.5,3.4,2.5c5.1,0,9.1-1.5,12-3
	L418,142.9z"/>
<path fill="#9C9B9B" d="M477.2,151.5c-5.1,1.6-8.3,2.6-14.2,2.6c-8.1,0-13.7-2.8-12.2-6.9c2.3-6.6,20.1-7.9,30.2-8.4
	c2-3.3,0.2-4.4-4.4-4.4c-3.9,0-7.1,0.9-8.4,2.9l-11.5-0.9c4.5-4.9,11.7-6.5,21.5-6.5c12.6,0,17.3,3,15.7,7.4l-4.1,11.6
	c-0.6,1.7-1,3.3-0.1,4.9h-12L477.2,151.5z M479.6,142.9c-5.2,0.4-15.4,0.7-16.6,4.1c-0.5,1.4,0.4,2.5,3.4,2.5c5.1,0,9.1-1.5,12-3
	L479.6,142.9z"/>
<path fill="#9C9B9B" d="M535.9,151.6c-4.3,1.7-7.5,2.5-12.7,2.5c-9.4,0-17.1-2.9-13.6-12.8c3-8.6,14.4-11.6,21.2-11.6
	c5,0,7.5,1.2,10.5,2.8l4-11.4h12.3l-11.4,32.4h-9.9L535.9,151.6z M532.3,134.6c-6.8,0-9.8,4.3-10.7,6.9c-1,2.8-1.5,7.3,5.9,7.3
	c3.7,0,6.5-1.2,8.9-2.7l3.2-9C537.9,135.9,535.9,134.6,532.3,134.6"/>
</svg>
